<svg width="500" height="500" viewBox="0 0 245 245" fill="none" xmlns="http://www.w3.org/2000/svg">
        <path d="M41.1769 107.123C46.5466 107.123 49.2315 108.136 49.2315 110.164C49.2315 110.602 49.0671 111.095 48.7383 111.643C47.4233 113.67 45.0398 114.684 41.5879 114.684C39.3413 114.684 37.04 114.284 34.6839 113.484C32.3278 112.695 30.5471 111.862 29.3416 110.986C24.2459 112.465 19.7145 114.739 15.7475 117.807C11.7695 120.876 8.79427 124.355 6.82172 128.245C5.78066 130.327 5.26012 132.355 5.26012 134.327C5.26012 137.396 6.5368 139.889 9.09015 141.807C11.6325 143.724 15.3694 144.683 20.3008 144.683C21.6706 144.683 23.0952 144.601 24.5746 144.437C33.2867 143.505 40.218 140.711 45.3686 136.053C49.6972 132.218 51.8615 128.191 51.8615 123.972C51.8615 120.629 50.2451 118.958 47.0124 118.958C43.1221 118.958 38.6564 121.04 33.6155 125.204C32.3552 126.245 31.2868 127.56 30.4101 129.149C29.5334 130.738 29.0951 132.3 29.0951 133.834C29.0951 135.368 29.8622 136.327 31.3964 136.711C31.9443 136.93 32.2183 137.204 32.2183 137.533C32.2183 138.081 31.6703 138.3 30.5745 138.19C27.9444 138.135 26.6294 136.41 26.6294 133.012C26.6294 129.615 28.3554 126.437 31.8073 123.478C36.5195 119.424 41.5057 117.396 46.7658 117.396C50.7109 117.396 53.204 118.629 54.245 121.095C54.6834 122.246 54.9025 123.396 54.9025 124.547C54.9025 129.643 52.0807 134.437 46.437 138.93C39.6975 144.409 31.1498 147.149 20.7939 147.149C14.3832 147.149 9.3148 145.96 5.58888 143.582C1.86296 141.193 0 138.081 0 134.245C0 131.999 0.712308 129.752 2.13693 127.506C7.17788 119.506 15.7804 113.561 27.9444 109.671C26.1362 107.588 25.2322 105.369 25.2322 103.013C25.2322 100.657 25.8075 98.6846 26.9581 97.0956C29.2046 94.0272 32.5744 91.5067 37.0674 89.5341C42.4371 87.1781 47.8068 86 53.1766 86C56.2998 86 58.8093 86.5096 60.7051 87.5287C62.59 88.5369 63.5324 90.093 63.5324 92.1971C63.5324 94.3121 62.7544 96.0929 61.1982 97.5394C59.6312 98.9969 57.9983 99.7256 56.2998 99.7256C54.6012 99.7256 53.7519 99.3147 53.7519 98.4928C53.7519 97.9997 54.108 97.7531 54.8203 97.7531L56.4641 97.9997C57.56 97.9997 58.5627 97.4079 59.4723 96.2244C60.3709 95.0518 60.8202 93.8354 60.8202 92.5752C60.8202 90.7122 59.7517 89.3424 57.6148 88.4657C56.245 87.9178 54.9573 87.6438 53.7519 87.6438C52.5464 87.6438 51.6972 87.6712 51.204 87.726C46.4918 87.9999 41.8892 89.6437 37.3962 92.6573C32.1361 96.1093 29.506 99.9996 29.506 104.328C29.506 105.917 30.0539 107.397 31.1498 108.766C34.6565 107.671 37.9989 107.123 41.1769 107.123ZM32.547 110.082C34.9031 111.944 37.6154 112.876 40.6838 112.876C43.7522 112.876 45.2864 112.027 45.2864 110.328C45.2864 109.561 43.9166 109.177 41.1769 109.177C38.4373 109.177 35.5606 109.479 32.547 110.082ZM59.7517 136.464C59.7517 138.108 60.6558 138.93 62.464 138.93C64.2721 138.93 66.6008 137.971 69.4501 136.053C72.2993 134.136 75.0663 131.533 77.7512 128.245C78.4087 127.369 78.9292 126.93 79.3128 126.93C79.6963 126.93 79.8881 127.095 79.8881 127.423C79.8881 127.752 78.7649 129.177 76.5184 131.697C71.0391 137.725 66.4638 140.738 62.7927 140.738C60.9846 140.738 59.4503 140.311 58.1901 139.456C56.9299 138.612 56.2998 137.297 56.2998 135.511C56.2998 133.736 56.7655 131.67 57.697 129.314C59.286 125.588 61.8338 120.903 65.3406 115.259C71.7514 104.849 76.2992 99.6434 78.984 99.6434C79.532 99.6434 80.0909 99.8462 80.6607 100.252C81.2415 100.668 81.5593 101.123 81.6141 101.616C80.3539 103.315 77.9265 106.575 74.3321 111.397C70.7487 116.218 68.272 119.681 66.9022 121.785C65.5324 123.9 64.5023 125.478 63.8119 126.519C63.1324 127.56 62.6283 128.366 62.2996 128.936C61.9708 129.517 61.5873 130.273 61.1489 131.204C60.2174 133.067 59.7517 134.821 59.7517 136.464ZM80.71 141.642C80.1073 141.642 79.5594 141.56 79.0662 141.396C75.5595 140.409 73.8061 138.437 73.8061 135.478C73.8061 131.643 76.217 127.204 81.0388 122.163C85.8606 117.122 90.1892 114.602 94.0247 114.602C95.2849 114.602 96.3096 114.942 97.0986 115.621C97.8986 116.311 98.2986 117.15 98.2986 118.136C98.2986 121.204 95.9808 124.136 91.3453 126.93C86.7208 129.725 82.9565 131.122 80.0525 131.122C79.6142 131.122 79.2306 131.067 78.9019 130.958C78.08 132.437 77.669 133.999 77.669 135.642C77.669 138.492 79.0224 139.916 81.7292 139.916C84.4469 139.916 87.9701 138.081 92.2987 134.41C95.6411 131.725 98.4903 128.875 100.846 125.862C101.34 125.204 101.761 124.876 102.112 124.876C102.474 124.876 102.655 125.04 102.655 125.369C102.655 125.697 102.435 126.163 101.997 126.766C99.0383 130.656 95.4767 134.108 91.3125 137.122C87.1482 140.135 83.614 141.642 80.71 141.642ZM96.2438 117.972C96.2438 117.314 95.5425 116.985 94.1398 116.985C92.748 116.985 90.7645 118.054 88.1893 120.191C84.7373 123.04 82.0524 126.026 80.1347 129.149C80.4635 129.259 80.8196 129.314 81.2032 129.314C83.2853 129.314 86.0633 128.202 89.5372 125.977C93.022 123.763 95.2027 121.341 96.0794 118.711C96.189 118.437 96.2438 118.191 96.2438 117.972ZM125.076 115.506L126.227 115.259C126.939 115.259 127.503 115.479 127.92 115.917C128.325 116.355 128.528 116.695 128.528 116.936C128.528 117.188 128.5 117.462 128.446 117.758C128.391 118.065 127.596 119.451 126.062 121.917C124.144 125.259 122.555 128.081 121.295 130.382C116.857 138.656 113.46 144.327 111.104 147.396C106.063 154.08 101.268 157.423 96.7205 157.423C95.1315 157.423 93.7507 156.754 92.5782 155.417C91.3946 154.069 90.7755 152.573 90.7207 150.93C90.8851 150.272 91.1316 149.943 91.4604 149.943C91.6248 149.943 91.7618 150.135 91.8713 150.519C92.1453 151.943 92.6658 153.039 93.4329 153.806C94.2 154.573 94.9671 154.957 95.7342 154.957C98.8574 154.957 102.2 152.902 105.761 148.793C108.117 146.053 110.72 142.053 113.569 136.793L117.679 128.656L111.515 134.903C107.57 138.683 104.874 140.574 103.427 140.574C101.97 140.574 100.583 140.081 99.2684 139.094C97.789 137.999 97.0493 136.547 97.0493 134.738C97.0493 130.738 99.8602 125.971 105.482 120.437C111.093 114.903 116.199 112.136 120.802 112.136C122.665 112.136 123.87 112.739 124.418 113.944C124.583 114.383 124.72 114.75 124.829 115.046C124.939 115.353 125.021 115.506 125.076 115.506ZM100.501 135.725C100.501 137.697 101.186 138.683 102.556 138.683C105.734 138.683 110.063 135.204 115.542 128.245L124.254 116.246C123.925 115.479 123.24 115.095 122.199 115.095C118.802 115.095 114.336 117.709 108.802 122.936C103.268 128.174 100.501 132.437 100.501 135.725ZM155.322 115.999L156.472 115.753C157.075 115.753 157.65 115.999 158.198 116.492C158.746 116.985 159.02 117.369 159.02 117.643C159.02 117.917 157.322 120.558 153.924 125.566C150.527 130.585 148.829 134.081 148.829 136.053C148.829 136.218 148.856 136.382 148.911 136.546C149.185 137.807 149.787 138.437 150.719 138.437C153.568 138.437 158.774 133.725 166.335 124.3C166.499 124.081 166.691 123.972 166.91 123.972C167.129 123.972 167.239 124.174 167.239 124.58C167.239 124.996 166.992 125.533 166.499 126.191C159.486 135.56 154.144 140.245 150.472 140.245C149.979 140.245 149.514 140.163 149.075 139.998C146.664 139.067 145.459 137.259 145.459 134.574C145.459 133.642 145.568 132.711 145.788 131.78L140.692 136.711C137.459 139.56 135.119 140.985 133.673 140.985C132.215 140.985 130.829 140.519 129.514 139.588C128.035 138.492 127.295 137.04 127.295 135.231C127.295 131.232 130.089 126.448 135.678 120.881C141.267 115.325 146.39 112.547 151.048 112.547C152.856 112.547 154.061 113.177 154.664 114.438C154.828 114.876 154.965 115.243 155.075 115.539C155.185 115.846 155.267 115.999 155.322 115.999ZM130.747 136.218C130.747 138.19 131.432 139.177 132.802 139.177C135.98 139.177 140.308 135.697 145.788 128.739L154.5 116.739C154.061 115.972 153.349 115.588 152.363 115.588C149.02 115.588 144.582 118.174 139.048 123.347C133.514 128.53 130.747 132.821 130.747 136.218ZM175.129 114.602C176.609 114.602 177.348 115.177 177.348 116.328C177.348 116.657 177.266 116.985 177.102 117.314C172.17 124.163 169.212 129.341 168.225 132.848C180.992 120.081 188.745 113.698 191.485 113.698C191.759 113.643 192.005 113.616 192.225 113.616C193.759 113.616 194.526 114.301 194.526 115.67C194.526 115.944 194.471 116.218 194.362 116.492C194.252 116.766 193.156 118.246 191.074 120.931C188.663 123.78 186.619 126.519 184.943 129.149C183.277 131.78 182.444 133.971 182.444 135.725C182.444 137.478 182.828 138.355 183.595 138.355C186.006 138.355 190.197 135.04 196.17 128.41C196.279 128.3 196.471 128.054 196.745 127.67C197.567 126.684 198.06 126.191 198.224 126.191C198.389 126.191 198.471 126.465 198.471 127.013C198.471 127.56 198.087 128.273 197.32 129.149C190.526 136.875 185.704 140.738 182.855 140.738C180.17 140.738 178.828 139.259 178.828 136.3C178.828 133.341 179.924 129.944 182.115 126.108L187.375 117.561C183.65 120.3 180.335 123.298 177.431 126.552C174.527 129.818 171.88 132.985 169.491 136.053C167.113 139.122 165.732 140.656 165.349 140.656C164.527 140.656 163.88 140.311 163.409 139.62C162.949 138.941 162.719 138.092 162.719 137.073C162.719 136.064 163.075 134.711 163.787 133.012C164.499 131.314 165.403 129.259 166.499 126.848L161.568 132.026C160.363 133.232 159.606 133.834 159.3 133.834C159.004 133.834 158.856 133.659 158.856 133.308C158.856 132.947 159.075 132.547 159.513 132.108C161.541 130.081 163.294 128.136 164.773 126.273C166.198 124.41 169.129 120.848 173.568 115.588C174.061 114.931 174.581 114.602 175.129 114.602ZM201.265 141.642C200.663 141.642 200.115 141.56 199.622 141.396C196.115 140.409 194.362 138.437 194.362 135.478C194.362 131.643 196.772 127.204 201.594 122.163C206.416 117.122 210.745 114.602 214.58 114.602C215.84 114.602 216.865 114.942 217.654 115.621C218.454 116.311 218.854 117.243 218.854 118.416C218.854 119.599 218.498 120.832 217.786 122.114C217.073 123.407 216.005 124.054 214.58 124.054C213.156 124.054 212.443 123.615 212.443 122.739C212.443 122.136 212.81 121.215 213.545 119.977C214.29 118.75 214.662 118.092 214.662 118.005C214.662 117.928 214.58 117.89 214.416 117.89C212.882 118.054 210.783 119.15 208.12 121.177C205.468 123.204 203.649 124.903 202.663 126.273L199.457 130.958C198.909 131.834 198.509 132.875 198.257 134.081C198.016 135.286 197.896 136.19 197.896 136.793C197.896 137.396 198.235 138.081 198.915 138.848C199.605 139.615 200.581 139.998 201.841 139.998C204.58 139.998 207.978 138.393 212.032 135.182C216.087 131.982 219.21 128.93 221.402 126.026C221.676 125.697 222.005 125.533 222.388 125.533C222.772 125.533 222.963 125.643 222.963 125.862C222.963 126.081 222.826 126.355 222.553 126.684C219.539 130.684 215.934 134.174 211.736 137.155C207.55 140.146 204.06 141.642 201.265 141.642ZM222.454 141.642C221.851 141.642 221.303 141.56 220.81 141.396C217.303 140.409 215.55 138.437 215.55 135.478C215.55 131.643 217.961 127.204 222.783 122.163C227.604 117.122 231.933 114.602 235.769 114.602C237.029 114.602 238.059 114.942 238.859 115.621C239.648 116.311 240.042 117.15 240.042 118.136C240.042 121.204 237.73 124.136 233.106 126.93C228.47 129.725 224.7 131.122 221.796 131.122C221.358 131.122 220.975 131.067 220.646 130.958C219.824 132.437 219.413 133.999 219.413 135.642C219.413 138.492 220.772 139.916 223.49 139.916C226.196 139.916 229.714 138.081 234.043 134.41C237.385 131.725 240.234 128.875 242.59 125.862C243.083 125.204 243.511 124.876 243.872 124.876C244.223 124.876 244.398 125.04 244.398 125.369C244.398 125.697 244.179 126.163 243.741 126.766C240.782 130.656 237.221 134.108 233.056 137.122C228.892 140.135 225.358 141.642 222.454 141.642ZM237.988 117.972C237.988 117.314 237.292 116.985 235.9 116.985C234.497 116.985 232.508 118.054 229.933 120.191C226.481 123.04 223.796 126.026 221.879 129.149C222.207 129.259 222.564 129.314 222.947 129.314C225.029 129.314 227.813 128.202 231.298 125.977C234.771 123.763 236.947 121.341 237.823 118.711C237.933 118.437 237.988 118.191 237.988 117.972Z"
                fill="#4F46E5" />
        <path d="M6 69.6418C15.9331 48.7967 31.5682 31.192 51.0945 18.8667C70.6207 6.54145 93.2392 0 116.33 0C139.421 0 162.039 6.54145 181.566 18.8667C201.092 31.192 216.727 48.7967 226.66 69.6418H220.219C210.673 50.2329 195.88 33.8862 177.519 22.4547C159.157 11.0232 137.96 4.96407 116.33 4.96407C94.7004 4.96407 73.5034 11.0232 55.1415 22.4547C36.7796 33.8862 21.9872 50.2329 12.441 69.6418H6ZM6 174.786C15.9331 195.631 31.5682 213.236 51.0945 225.561C70.6207 237.886 93.2392 244.428 116.33 244.428C139.421 244.428 162.039 237.886 181.566 225.561C201.092 213.236 216.727 195.631 226.66 174.786H220.219C210.673 194.195 195.88 210.541 177.519 221.973C159.157 233.404 137.96 239.464 116.33 239.464C94.7004 239.464 73.5034 233.404 55.1415 221.973C36.7796 210.541 21.9872 194.195 12.441 174.786H6Z"
                fill="#4F46E5" />
</svg>